<?xml version="1.0" encoding="UTF-8"?>
<svg width="60px" height="60px" viewBox="0 0 60 60" version="1.1" xmlns="http://www.w3.org/2000/svg" xmlns:xlink="http://www.w3.org/1999/xlink">
    <title>编组 7</title>
    <defs>
        <circle id="path-1" cx="18" cy="18" r="18"></circle>
        <filter x="-55.6%" y="-44.4%" width="211.1%" height="211.1%" filterUnits="objectBoundingBox" id="filter-2">
            <feOffset dx="0" dy="4" in="SourceAlpha" result="shadowOffsetOuter1"></feOffset>
            <feGaussianBlur stdDeviation="6" in="shadowOffsetOuter1" result="shadowBlurOuter1"></feGaussianBlur>
            <feComposite in="shadowBlurOuter1" in2="SourceAlpha" operator="out" result="shadowBlurOuter1"></feComposite>
            <feColorMatrix values="0 0 0 0 0.722609793   0 0 0 0 0.740983749   0 0 0 0 0.77100317  0 0 0 0.305862107 0" type="matrix" in="shadowBlurOuter1"></feColorMatrix>
        </filter>
    </defs>
    <g id="页面-1" stroke="none" stroke-width="1" fill="none" fill-rule="evenodd">
        <g id="助理市场" transform="translate(-1852, -1016)">
            <g id="编组-7" transform="translate(1864, 1024)">
                <g id="椭圆形">
                    <use fill="black" fill-opacity="1" filter="url(#filter-2)" xlink:href="#path-1"></use>
                    <circle stroke="#ECECEC" stroke-width="0.5" stroke-linejoin="square" fill="#FFFFFF" fill-rule="evenodd" cx="18" cy="18" r="17.75"></circle>
                </g>
                <g id="问号" transform="translate(14, 12)" fill="#323233" fill-rule="nonzero">
                    <path d="M3.79389754,10.5750257 C3.36238835,10.5750257 3.01095303,10.2254197 3.01095303,9.79119561 L3.01095303,9.1944159 C2.98648602,8.66443988 3.05766279,8.19458719 3.2289319,7.78485783 C3.39797674,7.37512847 3.73606641,7.00548133 4.24097665,6.6781432 L4.22095818,6.6781432 C4.66136447,6.33744433 5.03281825,6.03460089 5.33531954,5.76961288 C5.63782083,5.50462487 5.85802397,5.27749229 5.99592897,5.08821514 C6.24727195,4.76087701 6.38740123,4.32665296 6.41186824,3.7833162 C6.42521389,3.46711202 6.36960703,3.18208291 6.2517205,2.92154848 C6.13605824,2.66992121 5.96923768,2.42274752 5.75125881,2.17780062 C5.73791317,2.16443988 5.72456752,2.14885235 5.71122188,2.13549161 C5.24857285,1.68345324 4.65691592,1.45632066 3.93625109,1.45632066 C3.24450182,1.45632066 2.67731191,1.73021583 2.23690562,2.28023296 C1.89659167,2.70332306 1.66971571,3.30678314 1.55405345,4.09284001 C1.49399805,4.50924974 1.11142289,4.80095923 0.695483619,4.75419664 C0.26397443,4.70520726 -0.0474239544,4.31551901 0.00595862575,3.88352175 C0.0593412059,3.45152449 0.150536447,3.05292909 0.281768623,2.68550874 C0.488626121,2.10654334 0.768884667,1.61664954 1.12254426,1.22028092 C1.47620385,0.823912299 1.89214312,0.521068859 2.37036207,0.3117506 C2.84858102,0.10465913 3.37128545,0 3.93847536,0 C5.13513487,0 6.10491841,0.354059609 6.84782598,1.05995204 C7.61520057,1.79033916 8,2.69886948 8,3.7833162 C8,4.18636519 7.94661742,4.5626927 7.83985226,4.90784515 C7.7330871,5.25522439 7.59073355,5.56697499 7.41501589,5.84309695 C7.22595259,6.13257965 6.94791832,6.44878383 6.58313735,6.7894827 C6.21835639,7.13018157 5.76460446,7.48869476 5.22410583,7.86724906 C4.97276285,8.04316547 4.80816656,8.21685509 4.73254124,8.38831792 C4.65691592,8.55755396 4.61910326,8.82031518 4.61910326,9.17437479 L4.61910326,9.79119561 C4.61910326,10.2231929 4.26989221,10.5750257 3.83615875,10.5750257 L3.79389754,10.5750257 L3.79389754,10.5750257 Z M3.01985013,12.1983556 C3.01985013,12.6410916 3.37835306,13 3.82058883,13 C4.2628246,13 4.62132753,12.6410916 4.62132753,12.1983556 C4.62132753,11.7556196 4.2628246,11.3967112 3.82058883,11.3967112 C3.37835306,11.3967112 3.01985013,11.7556196 3.01985013,12.1983556 Z" id="形状"></path>
                </g>
            </g>
        </g>
    </g>
</svg>