<?xml version="1.0" encoding="UTF-8"?>
<svg width="36px" height="36px" viewBox="0 0 36 36" version="1.1" xmlns="http://www.w3.org/2000/svg" xmlns:xlink="http://www.w3.org/1999/xlink">
    <title>编组 31备份</title>
    <defs>
        <linearGradient x1="50%" y1="0%" x2="50%" y2="100%" id="linearGradient-1">
            <stop stop-color="#009FFF" offset="0%"></stop>
            <stop stop-color="#0066FF" offset="100%"></stop>
        </linearGradient>
    </defs>
    <g id="页面-1" stroke="none" stroke-width="1" fill="none" fill-rule="evenodd">
        <g id="编组-31备份">
            <g id="编组-26备份-4" fill="#EAF1FF">
                <circle id="椭圆形" cx="18" cy="18" r="18"></circle>
            </g>
            <path d="M22.0000013,9.27000831 C23.5806928,9.27000831 25.012114,9.91249995 26.0489165,10.948266 C27.0873136,11.985625 27.7300013,13.4175549 27.7300013,14.9940099 L27.7300013,26.7299964 L14.0000013,26.7299964 C12.4193079,26.7299964 10.9878865,26.0875068 9.95108437,25.0517426 C8.91268789,24.0143857 8.27000134,22.5824579 8.27000134,21.0060032 L8.27000128,14.9938295 C8.26898585,13.4744752 8.8724896,12.0171412 9.94737373,10.9433328 C11.0222583,9.869524 12.4801971,9.26747909 14.0000013,9.27000831 L22.0000013,9.27000831 Z M21.3544257,17.0557682 C21.0771157,16.9710935 20.7917374,17.0068369 20.5545179,17.1330764 C20.3172983,17.259316 20.1282376,17.4760517 20.0435628,17.7533615 C19.90909,18.1937594 19.6918883,18.5208585 19.3594341,18.733135 C19.015785,18.9525596 18.5583757,19.0499946 17.9717181,19.0499946 C17.209604,19.0499946 16.6651374,18.8127795 16.2758196,18.4020297 C16.1425405,18.2614135 16.0388319,18.1091274 15.8891109,17.8086876 C15.798089,17.5424704 15.609964,17.3357472 15.3771573,17.2156088 C15.1383604,17.0923791 14.8525529,17.0602474 14.5763359,17.1484221 C14.267636,17.246966 14.0320655,17.4688639 13.9496414,17.8365139 C13.8904645,18.1004709 13.9152461,18.4558157 14.1030753,18.9443889 C14.2663453,19.2531702 14.4798805,19.5599106 14.7516641,19.8466561 C15.5200513,20.6573432 16.5930767,21.1499929 17.9717181,21.1499929 C19.0191517,21.1499929 19.8967293,20.90693 20.5826261,20.44174 C21.2723005,19.9739879 21.7728508,19.2809071 22.0520195,18.3666306 C22.1366943,18.0893207 22.1009509,17.8039424 21.9747112,17.566723 C21.8484716,17.3295036 21.6317357,17.140443 21.3544257,17.0557682 Z M21.0199956,13.2899949 C20.630635,13.2899949 20.2781351,13.4478143 20.0229754,13.7029739 C19.7678156,13.9581335 19.609996,14.3106332 19.609996,14.6999936 C19.609996,15.089354 19.7678156,15.4418537 20.0229754,15.6970133 C20.2781351,15.9521728 20.630635,16.1099923 21.0199956,16.1099923 C21.4093562,16.1099923 21.7618561,15.9521728 22.0170158,15.6970133 C22.2721756,15.4418537 22.4299952,15.089354 22.4299952,14.6999936 C22.4299952,14.3106332 22.2721756,13.9581335 22.0170158,13.7029739 C21.7618561,13.4478143 21.4093562,13.2899949 21.0199956,13.2899949 Z M15.1399976,13.2899949 C14.750637,13.2899949 14.3981371,13.4478143 14.1429774,13.7029739 C13.8878176,13.9581335 13.729998,14.3106332 13.729998,14.6999936 C13.729998,15.089354 13.8878176,15.4418537 14.1429774,15.6970133 C14.3981371,15.9521728 14.750637,16.1099923 15.1399976,16.1099923 C15.5293582,16.1099923 15.8818581,15.9521728 16.1370178,15.6970133 C16.3921776,15.4418537 16.5499972,15.089354 16.5499972,14.6999936 C16.5499972,14.3106332 16.3921776,13.9581335 16.1370178,13.7029739 C15.8818581,13.4478143 15.5293582,13.2899949 15.1399976,13.2899949 Z" id="形状结合" stroke="url(#linearGradient-1)" stroke-width="0.54" fill="url(#linearGradient-1)"></path>
        </g>
    </g>
</svg>
