<?xml version="1.0" encoding="UTF-8"?>
<svg width="37.8px" height="37.3470621px" viewBox="0 0 37.8 37.3470621" version="1.1" xmlns="http://www.w3.org/2000/svg" xmlns:xlink="http://www.w3.org/1999/xlink">
    <title>编组 15备份</title>
    <defs>
        <filter x="-6.6%" y="-9.8%" width="113.2%" height="121.7%" filterUnits="objectBoundingBox" id="filter-1">
            <feOffset dx="0" dy="2" in="SourceAlpha" result="shadowOffsetOuter1"></feOffset>
            <feGaussianBlur stdDeviation="6" in="shadowOffsetOuter1" result="shadowBlurOuter1"></feGaussianBlur>
            <feColorMatrix values="0 0 0 0 0.391577989   0 0 0 0 0.474632029   0 0 0 0 0.599213089  0 0 0 0.1 0" type="matrix" in="shadowBlurOuter1" result="shadowMatrixOuter1"></feColorMatrix>
            <feMerge>
                <feMergeNode in="shadowMatrixOuter1"></feMergeNode>
                <feMergeNode in="SourceGraphic"></feMergeNode>
            </feMerge>
        </filter>
    </defs>
    <g id="页面-1" stroke="none" stroke-width="1" fill="none" fill-rule="evenodd">
        <g id="工作流" transform="translate(-542.35, -299.3333)">
            <g id="Group-7-Copy备份-38" filter="url(#filter-1)" transform="translate(456, 164)">
                <g id="编组-26" transform="translate(16, 134)">
                    <g id="编组-2" transform="translate(12, 8)">
                        <g id="编组-15备份" transform="translate(69, 2)">
                            <rect id="矩形" x="0" y="0" width="16" height="16"></rect>
                            <g id="编组-14" transform="translate(1.35, 1.3333)" fill="#999FAB" fill-rule="nonzero">
                                <path d="M5.5,0 C6.43191279,0 7.21495822,0.63737692 7.43698631,1.49998077 L10.8691397,1.5 C12.4878091,1.5 13.8,2.81219086 13.8,4.43086031 C13.8,6.04952976 12.4878091,7.36172061 10.8691397,7.36172061 L2.85155742,7.36172061 C1.82897049,7.36172061 1,8.1906911 1,9.21327803 C1,10.235865 1.82897049,11.0648354 2.85155742,11.0648354 L6.51981821,11.0644111 C6.6571353,10.0936912 7.49137536,9.34706207 8.5,9.34706207 L11.5,9.34706207 C12.6045695,9.34706207 13.5,10.2424926 13.5,11.3470621 C13.5,12.4516316 12.6045695,13.3470621 11.5,13.3470621 L8.5,13.3470621 C7.64838535,13.3470621 6.92108903,12.814792 6.63263871,12.0647795 L2.85155742,12.0648354 C1.27668574,12.0648354 0,10.7881497 0,9.21327803 C0,7.63840635 1.27668574,6.36172061 2.85155742,6.36172061 L10.8691397,6.36172061 C11.9355244,6.36172061 12.8,5.49724501 12.8,4.43086031 C12.8,3.3644756 11.9355244,2.5 10.8691397,2.5 L7.43672788,2.50102216 C7.21435119,3.36311708 6.43155158,4 5.5,4 L2.5,4 C1.3954305,4 0.5,3.1045695 0.5,2 C0.5,0.8954305 1.3954305,0 2.5,0 L5.5,0 Z M11.5,10.3470621 L8.5,10.3470621 C7.94771525,10.3470621 7.5,10.7947773 7.5,11.3470621 C7.5,11.8993468 7.94771525,12.3470621 8.5,12.3470621 L11.5,12.3470621 C12.0522847,12.3470621 12.5,11.8993468 12.5,11.3470621 C12.5,10.7947773 12.0522847,10.3470621 11.5,10.3470621 Z M5.5,1 L2.5,1 C1.94771525,1 1.5,1.44771525 1.5,2 C1.5,2.55228475 1.94771525,3 2.5,3 L5.5,3 C6.05228475,3 6.5,2.55228475 6.5,2 C6.5,1.44771525 6.05228475,1 5.5,1 Z" id="形状结合"></path>
                            </g>
                        </g>
                    </g>
                </g>
            </g>
        </g>
    </g>
</svg>
